<?xml version="1.0" encoding="UTF-8" standalone="no"?>
<!-- Created with Inkscape (http://www.inkscape.org/) -->

<svg
   version="1.1"
   id="svg2"
   width="569"
   height="176"
   viewBox="0 0 569 176"
   sodipodi:docname="logo.svg"
   inkscape:version="1.1 (c68e22c387, 2021-05-23)"
   xmlns:inkscape="http://www.inkscape.org/namespaces/inkscape"
   xmlns:sodipodi="http://sodipodi.sourceforge.net/DTD/sodipodi-0.dtd"
   xmlns="http://www.w3.org/2000/svg"
   xmlns:svg="http://www.w3.org/2000/svg">
  <defs
     id="defs6" />
  <sodipodi:namedview
     id="namedview4"
     pagecolor="#ffffff"
     bordercolor="#666666"
     borderopacity="1.0"
     inkscape:pageshadow="2"
     inkscape:pageopacity="0.0"
     inkscape:pagecheckerboard="0"
     showgrid="false"
     inkscape:zoom="1.0079086"
     inkscape:cx="362.13601"
     inkscape:cy="115.58588"
     inkscape:window-width="1366"
     inkscape:window-height="705"
     inkscape:window-x="-8"
     inkscape:window-y="-8"
     inkscape:window-maximized="1"
     inkscape:current-layer="g8" />
  <g
     inkscape:groupmode="layer"
     inkscape:label="Image"
     id="g8">
    <path
       d="m 103.7529,148.66038 c 0,0 -61.89106,0.43718 -61.89106,0.43718 0,0 -0.429084,-61.514031 -0.429084,-61.514031 -0.237264,-33.955745 27.29806,-61.709912 61.461904,-61.951213 34.16384,-0.241144 62.08324,27.121066 62.32015,61.076811 0.23686,33.955753 -27.29807,61.709923 -61.46191,61.951253 z"
       id="finity-6-9"
       style="fill:none;fill-opacity:1;stroke:#3c6eb4;stroke-width:37.6711;stroke-opacity:1"
       inkscape:export-filename="C:\Users\COMSURPE AZANGARO\Documents\Platzi\CreatePasswordForm\assets\Logo\logo2.png"
       inkscape:export-xdpi="96"
       inkscape:export-ydpi="96" />
    <path
       d="M 23.063879,168.62816 22.504694,88.469636 C 22.195305,44.107818 58.13271,7.8834457 102.76802,7.5681635 c 6.77183,-0.047994 11.59123,0.678013 17.87114,2.2622669 9.15695,2.3128766 16.67867,9.7087436 16.74224,18.3724896 0.0725,10.472171 -7.5218,18.143793 -18.9545,18.224448 -5.4413,0.03903 -7.42292,-0.986038 -15.3943,-0.929693 C 79.500289,45.66429 60.544362,64.743746 60.666226,88.133048 l 0.256969,36.843702 c 0.02365,3.30137 2.740905,5.95724 6.068071,5.9337 L 95.017,130.7177 c 10.44191,-0.0738 18.93626,8.14446 19.00886,18.55123 0.0784,10.47148 -8.39258,18.77565 -18.947258,18.85014"
       id="dom-4-1"
       style="fill:#294172;fill-opacity:1;stroke-width:1.28966"
       inkscape:export-filename="C:\Users\COMSURPE AZANGARO\Documents\Platzi\CreatePasswordForm\assets\Logo\logo2.png"
       inkscape:export-xdpi="96"
       inkscape:export-ydpi="96" />
    <path
       style="fill:#3c6eb4;fill-opacity:1;stroke:#3c6eb4;stroke-width:4.35009;stroke-miterlimit:4;stroke-dasharray:none;stroke-opacity:1"
       d="m 274.16143,133.66807 v -17.84219 l -4.46552,3.45394 c -7.03758,5.44325 -12.80927,7.24193 -23.23841,7.24193 -8.20833,0 -9.72019,-0.31801 -15.70743,-3.30587 -16.83947,-8.40324 -25.21125,-26.747205 -20.60132,-45.14139 7.09709,-28.31828 42.23411,-38.904312 63.56428,-19.150628 3.07867,2.851159 6.54642,7.064274 7.7061,9.3624 4.41763,8.755016 4.79654,12.600055 4.80911,48.801048 l 0.0118,34.42309 h -6.03938 -6.03938 z m -14.45655,-21.08863 c 5.47999,-2.61013 11.69854,-9.60459 13.27283,-14.929002 1.51526,-5.124743 1.51526,-13.628272 0,-18.753014 -1.4732,-4.982476 -7.90603,-12.516317 -12.88466,-15.090003 -17.45719,-9.024332 -38.50147,4.397407 -38.4066,24.495286 0.0958,20.287873 19.8755,32.918283 38.01843,24.276733 z m 67.73326,13.05769 c -10.57643,-2.88959 -18.45649,-10.04749 -23.80741,-21.62532 -2.45505,-5.312045 -2.79061,-7.228126 -2.75604,-15.737821 0.0489,-12.032701 2.37062,-18.601966 9.39752,-26.590743 22.0011,-25.012812 63.16309,-11.372913 66.2338,21.947978 l 0.6159,6.682618 h -31.85234 -31.8522 v 2.859548 c 0,1.572743 1.17327,5.245314 2.60725,8.16112 6.28295,12.77589 20.52016,17.56927 34.1323,11.49169 3.81951,-1.7054 11.01127,-6.79479 13.33779,-11.00737 1.04491,-1.891923 1.21584,-1.878499 6.19873,0.48635 2.81831,1.33761 5.12422,2.60127 5.12422,2.80823 0,1.20998 -4.38721,6.58784 -6.76394,9.28558 -9.44825,10.72432 -25.86759,15.26747 -40.61558,11.23814 z m 35.3008,-47.085385 c 0,-2.317247 -3.41991,-7.754188 -6.85045,-10.890896 -12.84955,-11.748908 -34.44985,-7.12897 -40.36401,8.633272 l -1.0507,2.800315 h 24.13255 c 13.27292,0 24.13261,-0.244266 24.13261,-0.542691 z m 98.13979,47.109385 c -10.98672,-3.69236 -19.66339,-11.44428 -24.47412,-21.86566 -2.36132,-5.115136 -2.69006,-7.085886 -2.67437,-16.031474 0.0158,-9.16211 0.3153,-10.819606 2.94439,-16.296894 3.90708,-8.14037 11.05525,-15.191533 19.43219,-19.1685 6.06334,-2.878511 7.74866,-3.218103 15.84411,-3.192623 11.52989,0.03903 18.44049,2.608298 26.12262,9.722674 10.31721,9.554613 12.63002,18.156279 12.63002,46.971637 v 19.19152 h -6.03942 -6.0393 v -4.63777 -4.63777 l -3.77469,3.06136 c -6.39205,5.18432 -12.95995,7.55893 -21.89268,7.91533 -4.85365,0.19354 -9.65201,-0.21616 -12.07875,-1.03183 z m 23.54055,-13.37714 c 9.33958,-4.82968 14.15315,-12.983862 14.17357,-24.010001 0.0236,-12.218554 -7.31225,-22.672074 -18.20887,-25.95101 -6.61231,-1.98979 -9.2472,-1.98979 -15.85963,0 -12.74901,3.836378 -20.94611,17.824297 -18.15984,30.988971 3.80568,17.98065 22.21952,27.16079 38.05477,18.97204 z M 398.97513,93.37368 V 61.755393 h -6.54264 -6.54263 V 56.14575 50.536065 h 6.54263 6.54264 V 37.276806 24.017548 h 6.03938 6.03938 v 13.259258 13.259259 h 7.54919 7.54927 v 5.609685 5.609643 h -7.54927 -7.54919 v 31.618287 31.61813 h -6.03938 -6.03938 z M 526.80859,73.994745 V 22.997602 h 6.03934 6.03942 v 50.997143 50.997065 h -6.03942 -6.03934 z"
       id="path46232"
       sodipodi:nodetypes="ccsssssssccccssssssssssscccssssssssssscsssssssssscccccssssssssscccccccccccccccccccccccccccccccccc"
       inkscape:export-filename="C:\Users\COMSURPE AZANGARO\Documents\Platzi\CreatePasswordForm\assets\Logo\logo.png"
       inkscape:export-xdpi="96"
       inkscape:export-ydpi="96" />
  </g>
</svg>
