<?xml version="1.0" encoding="UTF-8" standalone="no"?>
<!-- Created with Inkscape (http://www.inkscape.org/) -->

<svg
   version="1.1"
   id="svg2"
   width="41"
   height="41"
   viewBox="0 0 41 41"
   sodipodi:docname="logo2.svg"
   inkscape:version="1.1 (c68e22c387, 2021-05-23)"
   xmlns:inkscape="http://www.inkscape.org/namespaces/inkscape"
   xmlns:sodipodi="http://sodipodi.sourceforge.net/DTD/sodipodi-0.dtd"
   xmlns="http://www.w3.org/2000/svg"
   xmlns:svg="http://www.w3.org/2000/svg">
  <defs
     id="defs6" />
  <sodipodi:namedview
     id="namedview4"
     pagecolor="#ffffff"
     bordercolor="#666666"
     borderopacity="1.0"
     inkscape:pageshadow="2"
     inkscape:pageopacity="0.0"
     inkscape:pagecheckerboard="0"
     showgrid="false"
     inkscape:zoom="3.1707317"
     inkscape:cx="-14.507692"
     inkscape:cy="37.688461"
     inkscape:window-width="1366"
     inkscape:window-height="705"
     inkscape:window-x="-8"
     inkscape:window-y="-8"
     inkscape:window-maximized="1"
     inkscape:current-layer="g8" />
  <g
     inkscape:groupmode="layer"
     inkscape:label="Image"
     id="g8">
    <g
       id="g920">
      <path
         d="m 5.9129759,20.551268 c 0,0 0.1187435,15.150348 0.1187435,15.150348 0,0 14.8613796,-0.134822 14.8613796,-0.134822 C 29.096583,35.492454 35.70129,28.644635 35.635737,20.281643 35.570148,11.918658 28.859106,5.1917069 20.655623,5.2661163 12.452143,5.3405572 5.8474344,12.188283 5.9129759,20.551268 Z"
         id="finity-6-9"
         style="fill:none;fill-opacity:1;stroke:#3c6eb4;stroke-width:9.16119;stroke-opacity:1"
         inkscape:export-filename="C:\Users\COMSURPE AZANGARO\Documents\Platzi\CreatePasswordForm\assets\Logo\logo2.png"
         inkscape:export-xdpi="96"
         inkscape:export-ydpi="96" />
      <path
         d="m 1.381891,40.378811 19.365768,-0.175669 c 10.717518,-0.09724 19.337897,-9.03463 19.252259,-19.960932 -0.01295,-1.657683 -0.205803,-2.834464 -0.611273,-4.365372 -0.59191,-2.232264 -2.405781,-4.044469 -4.498896,-4.026247 -2.530004,0.02306 -4.355694,1.911796 -4.333735,4.710419 0.01027,1.331977 0.265103,1.813014 0.280389,3.764327 0.04505,5.760491 -4.495221,10.474592 -10.145771,10.535953 l -8.901191,0.08073 c -0.797598,0.0067 -1.449013,-0.647646 -1.455392,-1.462099 l -0.05503,-6.860412 c -0.02003,-2.556086 -2.0360822,-4.603142 -4.5502894,-4.580335 -2.5298576,0.02162 -4.5051732,2.127401 -4.4849075,4.71108"
         id="dom-4-1"
         style="fill:#294172;fill-opacity:1;stroke-width:0.313636"
         inkscape:export-filename="C:\Users\COMSURPE AZANGARO\Documents\Platzi\CreatePasswordForm\assets\Logo\logo2.png"
         inkscape:export-xdpi="96"
         inkscape:export-ydpi="96" />
    </g>
  </g>
</svg>
