<?xml version="1.0" encoding="UTF-8" standalone="no"?>
<!-- Created with Inkscape (http://www.inkscape.org/) -->

<svg
   version="1.1"
   id="svg2"
   width="2400"
   height="2400"
   viewBox="0 0 2400 2400"
   sodipodi:docname="carrito.svg"
   inkscape:version="1.1 (c68e22c387, 2021-05-23)"
   xmlns:inkscape="http://www.inkscape.org/namespaces/inkscape"
   xmlns:sodipodi="http://sodipodi.sourceforge.net/DTD/sodipodi-0.dtd"
   xmlns="http://www.w3.org/2000/svg"
   xmlns:svg="http://www.w3.org/2000/svg">
  <defs
     id="defs6" />
  <sodipodi:namedview
     id="namedview4"
     pagecolor="#ffffff"
     bordercolor="#666666"
     borderopacity="1.0"
     inkscape:pageshadow="2"
     inkscape:pageopacity="0.0"
     inkscape:pagecheckerboard="0"
     showgrid="false"
     inkscape:zoom="0.076603235"
     inkscape:cx="313.3027"
     inkscape:cy="2343.2431"
     inkscape:window-width="1366"
     inkscape:window-height="705"
     inkscape:window-x="-8"
     inkscape:window-y="-8"
     inkscape:window-maximized="1"
     inkscape:current-layer="g8" />
  <g
     inkscape:groupmode="layer"
     inkscape:label="Image"
     id="g8">
    <circle
       style="fill:#3c6eb4;fill-rule:evenodd;stroke-width:1.30959;fill-opacity:1"
       id="path849"
       cx="1201.5209"
       cy="1197.7301"
       r="1190" />
    <path
       d="m 396.70287,458.99491 c -15.6,5.86666 -25.46667,15.2 -30.93334,29.73333 -4.4,11.73333 -4.66666,16.26667 -1.33333,25.86667 3.73333,10.79999 6.4,15.19999 13.6,22.13333 10.8,10.53333 10.13333,10.4 137.06666,31.6 64.13333,10.8 -1.73333,-0.53334 0,0 2.93334,0.93333 23.6,52.66666 187.6,467.73336 101.46666,256.5333 184.53333,467.1999 184.53333,468.1333 0,0.8 -27.73334,22.9333 -61.6,49.2 -80.53333,62.2666 -96.53333,78 -112.8,110.5333 -11.86666,23.7333 -16.66666,44.1333 -16.66666,69.3333 0.13333,24.8 3.06666,35.4667 16.13333,57.3334 16.26666,27.3333 39.86666,48.6666 68.8,62 6.8,3.0666 11.33333,5.8666 10.66666,6.5333 -0.66666,0.6667 -5.06666,2.4 -9.6,3.8667 -14.53333,4.8 -25.46666,11.8666 -37.6,24.1333 -12.4,12.5333 -20.8,26.6667 -24.66666,42.1333 -11.6,45.0667 12,93.0667 55.06666,111.4667 7.73334,3.3333 32,9.2 38,9.2 5.46667,0 26.13334,-4.4 34.26667,-7.3333 12.4,-4.4 23.33333,-11.7334 34.93333,-23.3334 9.6,-9.7333 12.53333,-13.7333 17.6,-24.1333 14,-29.2 13.33333,-59.0667 -2,-88 -5.33333,-9.8667 -20.13333,-26 -29.2,-31.8667 -6.4,-4.1333 -7.86667,-5.8666 -5.73333,-7.0666 2.4,-1.3334 823.73331,1.8666 825.06671,3.2 0.9333,0.9333 0,2.2666 -2.6667,4.1333 -7.0667,4.9333 -22.5333,21.7333 -27.0667,29.3333 -17.2,29.0667 -17.2,66.9334 -0.1333,96 10,16.9334 26.6667,31.8667 44.5333,39.6 7.8667,3.6 32.1334,9.4667 38.4,9.4667 5.4667,0 26.1334,-4.4 34.2667,-7.3333 12.1333,-4.2667 23.3333,-11.8667 34.8,-23.2 9.6,-9.4667 12.5333,-13.6 17.7333,-24.1334 13.6,-27.8666 13.6,-55.8666 0,-84 -5.4666,-11.2 -7.7333,-14.2666 -20,-26.2666 -10.1333,-9.8667 -13.2,-13.7334 -11.7333,-14.2667 1.2,-0.4 20,-0.8 41.8667,-0.8 36.5333,0 40.5333,-0.2667 46.9333,-2.6667 10.2666,-3.8666 20.1333,-12.9333 25.3333,-23.7333 3.8667,-7.8667 4.4,-10.1333 4.4,-19.6 -0.1333,-8.6667 -0.6667,-12.1333 -3.6,-18.2667 -4.5333,-9.6 -13.7333,-18.9333 -23.4667,-23.4666 l -7.6,-3.6 -126.6666,-0.9334 c -69.6,-0.6666 -306.4,-1.6 -526,-2.1333 -436.53334,-1.3333 -405.33334,-0.6667 -419.06668,-8.6667 -7.33333,-4.4 -10.93333,-8.2666 -14.13333,-15.6 -6.13333,-13.8666 -4.8,-28.5333 4.13333,-46.6666 9.46667,-19.2 7.2,-17.3334 188.39996,-157.6 l 8.1334,-6.2667 42.00002,-3.4667 c 22.9333,-1.7333 133.7333,-10.5333 245.8666,-19.3333 481.2,-37.7333 560.2667,-44 565.3333,-45.4667 12.4,-3.3333 25.0667,-14.4 30.1334,-26.1333 2.9333,-6.8 3.4666,-11.2 21.0666,-155.7333 6,-48.4 12.6667,-102.6667 14.8,-120.6667 2.2667,-18 5.8667,-47.3333 8,-65.3333 2.1334,-18 8.5334,-69.6 14,-114.6667 5.4667,-45.0666 10.8,-85.46664 11.6,-89.59997 1.4667,-6.93333 1.3334,-8.66667 -1.3333,-16.8 -5.2,-16.13333 -13.7333,-26.26667 -27.2,-32.26667 -8.1333,-3.6 -12.2667,-3.86666 -77.7333,-5.33333 -32.2667,-0.8 -82,-2 -110.6667,-2.66667 -28.5333,-0.8 -101.4666,-2.53333 -162,-4 -60.5333,-1.46666 -133.7333,-3.2 -162.6666,-4 -28.9334,-0.66666 -77.6,-1.86666 -108,-2.66666 -30.4,-0.8 -79.0667,-2 -108,-2.66667 -101.3334,-2.53333 -162.4,-4 -215.33338,-5.33333 -80.93333,-2 -163.06666,-4 -211.73333,-5.2 -25.06667,-0.66667 -44.26667,-1.6 -45.06667,-2.4 -0.66666,-0.66667 -28.66666,-70.53333 -61.99999,-155.2 -33.33334,-84.66666 -62.13334,-156.39999 -64,-159.46666 -3.86667,-6.66667 -12.53334,-14 -20.66667,-17.6 -3.2,-1.46667 -16.66666,-4.4 -29.86666,-6.66667 -13.2,-2.26666 58.13333,10.13334 11.86666,2.4 -46.13333,-7.73333 -96,-16.26666 -110.66666,-18.93333 -34.53333,-6.13333 -35.6,-6.26667 -45.73333,-2.53333 z m 478.26665,433.46665 c 28.53333,0.8 35.33333,1.33334 36.26667,2.8 2,3.2 1.73333,165.73334 -0.26667,167.73334 -1.2,1.2 -13.06667,1.6 -45.33333,1.6 -42.26667,0 -43.73333,-0.1333 -45.06667,-2.6667 -2.93333,-5.4666 -66.66666,-168.26664 -66.66666,-170.26664 0,-2.13333 10.8,-2.13333 121.06666,0.8 z m 164.26668,4.13334 c 35.6,0.8 66,1.73333 67.7333,2.13333 l 2.9334,0.53333 -0.2667,82.40004 -0.4,82.2666 -81.8667,0.4 c -64.66665,0.2667 -82.13331,0 -83.06665,-1.3333 -0.53333,-0.9333 -1.06666,-38.6667 -1.06666,-83.8667 0,-63.86664 0.4,-82.39997 1.73333,-83.7333 1.2,-1.2 5.2,-1.46667 15.6,-0.93334 7.73333,0.4 43.06668,1.46667 78.66668,2.13334 z m 218.5333,5.33333 c 26,0.66667 47.7334,1.73333 48.4,2.4 0.5334,0.53333 0.9334,36.79997 0.8,80.39997 l -0.4,79.2 h -82 -82 l -0.4,-80.6666 c -0.1333,-44.4 0,-81.4667 0.4,-82.53337 0.5334,-1.46667 6.4,-1.6 34.4,-0.93333 18.4,0.53333 54.8,1.46666 80.8,2.13333 z m 172.8,4.13333 c 38.1334,0.8 70.6667,2 72.4,2.66667 l 2.9334,1.2 -0.2667,76.93337 -0.4,77.0666 h -82.6667 -82.6666 l -0.4,-78 c -0.1334,-42.9333 0,-78.79997 0.4,-79.7333 0.8,-2 3.7333,-2 90.6666,-0.13334 z m 203.3334,5.33334 c 36.2666,0.8 66.8,1.6 67.7333,1.86666 1.3333,0.53334 1.6,16.26667 1.3333,75.60004 l -0.4,75.0666 -81.2,0.4 c -58.8,0.1334 -81.7333,-0.1333 -82.9333,-1.2 -1.6,-1.2 -1.8667,-14.6666 -1.8667,-75.4666 0,-49.6 0.4,-74.80004 1.4667,-76.53337 1.2,-2.53333 2.4,-2.66667 15.6,-2 7.8667,0.53333 44,1.46667 80.2667,2.26667 z m 198.9333,4.66666 c 21.7333,0.53333 40.2666,1.33333 41.0666,1.86667 1.2,0.66666 0.6667,8.13333 -1.8666,28.79997 -1.8667,15.3334 -5.8667,47.6 -8.8,71.8667 -3.0667,24.1333 -5.8667,44.4 -6.5334,45.0667 -0.5333,0.5333 -27.8666,0.8 -60.9333,0.6666 l -59.8666,-0.4 -0.4,-73.3333 c -0.1334,-40.4 0,-74.13334 0.4,-75.2 0.6666,-1.6 5.4666,-1.73334 29.0666,-1.06667 15.4667,0.53333 46.1334,1.33333 67.8667,1.73333 z M 910.96952,1096.8616 c 2.26667,2.2666 2.26667,149.2 0,151.4666 -2.13333,2.1334 -15.06667,2.1334 -16.66667,-0.1333 -2.93333,-3.6 -59.33333,-148.9333 -58.66666,-150.9333 0.8,-1.7334 5.73333,-2 37.33333,-2 26.53333,0 36.8,0.4 38,1.6 z m 198.66668,74.9333 c 0.2667,59.8667 0,76.1333 -1.3333,77.0667 -0.9334,0.5333 -37.7334,1.0666 -81.8667,1.0666 -60.40001,0 -80.40001,-0.4 -81.60001,-1.6 -2.26667,-2.2666 -2.26667,-149.2 0,-151.4666 1.2,-1.2 20.8,-1.6 83.06671,-1.3334 l 81.3333,0.4 z m 197.6,-74 c 2.1333,4.1333 1.8667,146.9333 -0.2667,149.8667 -1.6,2.1333 -7.7333,2.2666 -83.0666,2 l -81.3334,-0.4 -0.4,-75.3334 c -0.1333,-41.4666 0,-76.1333 0.4,-77.0666 0.4,-1.2 18.1334,-1.6 81.8667,-1.6 79.0667,0 81.4667,0.1333 82.8,2.5333 z m 197.0667,-0.9333 c 2.2666,2.2666 2.2666,149.2 0,151.4666 -2.2667,2.2667 -161.2,2.2667 -163.4667,0 -1.2,-1.2 -1.6,-20 -1.6,-76.4 0,-41.2 0.4,-75.3333 0.9333,-75.7333 0.4,-0.5333 37.2,-0.9333 81.7334,-0.9333 61.0666,0 81.2,0.4 82.4,1.6 z m 198.2666,75.7333 v 76.6667 l -81.3333,0.4 c -75.3333,0.2666 -81.4667,0.1333 -82.9333,-2 -2.2667,-2.9334 -2.5334,-145.7334 -0.4,-149.8667 1.4666,-2.5333 3.4666,-2.5333 83.0666,-2.2667 l 81.6,0.4 z m 149.6,-75.7333 c 0.8,1.2 0,12.1333 -2.4,31.7333 -2,16.5333 -6.1333,50.1333 -9.2,74.6667 -3.4666,28.4 -6,44.9333 -7.0666,45.6 -0.8,0.5333 -23.2,0.9333 -49.6,0.6666 l -48,-0.2666 -0.4,-75.3334 c -0.1334,-41.4666 0,-76.1333 0.4,-77.0666 0.4,-1.2 13.2,-1.6 57.7333,-1.6 44.2667,0 57.6,0.4 58.5333,1.6 z m -940.66665,185.3333 c 0.93334,2.4 -0.26666,5.2 -1.73333,4.2667 -1.6,-0.9334 -1.6,-5.8667 0,-5.8667 0.66667,0 1.46667,0.8 1.73333,1.6 z m 198.13335,77.6 c 0.1333,49.4666 -0.1333,79.0666 -1.0667,80 -0.9333,0.9333 -93.8666,9.4666 -130.66665,11.8666 -3.2,0.2667 -4.13333,-1.7333 -18.66666,-37.7333 l -15.33334,-38 -0.4,-45.8666 c -0.13333,-25.3334 0,-46.8 0.26667,-47.7334 0.66667,-1.4666 15.6,-1.7333 83.06668,-1.4666 l 82.4,0.4 z m 198.1333,-76.2667 c 0.4,1.7334 0.8,33.4667 0.8,70.5334 0,51.8666 -0.4,67.8666 -1.6,69.4666 -1.4666,1.7333 -15.2,3.2 -80.4,8.2667 -43.2,3.3333 -80,6.1333 -81.6,6.1333 h -3.0666 v -77.7333 c 0,-42.8 0.4,-78.2667 0.9333,-78.6667 0.4,-0.5333 37.6,-0.9333 82.5333,-0.9333 h 81.6 z m 197.4667,61.7334 v 63.9999 l -6.6667,0.9334 c -14.6666,2 -155.0666,12.1333 -157.0666,11.3333 -2.1334,-0.8 -2.2667,-6.8 -2.2667,-70 0,-38 0.4,-69.6 0.9333,-70 0.4,-0.5333 37.8667,-0.8 82.9334,-0.6666 l 82.1333,0.4 z m 197.7333,-8.8 c 0.1334,34.8 -0.1333,55.7333 -1.0666,56.6666 -0.6667,0.6667 -37.4667,4.1333 -81.6,7.6 -74.1334,5.8667 -80.5334,6.2667 -82,4.2667 -1.3334,-1.7334 -1.7334,-16.1334 -1.7334,-61.2 0,-32.4 0.4,-60 0.8,-61.0667 0.8,-2 8.9334,-2.1333 83.0667,-1.8666 l 82.1333,0.4 z m 127.2,-54.2667 c 0.4,0.9333 -2.1333,24.1333 -5.4666,51.6 -4.6667,38.4 -6.5334,50.1333 -8.1334,50.9333 -2.6666,1.4667 -78.1333,7.0667 -79.8666,5.8667 -1.6,-0.9334 -2.1334,-107.6 -0.5334,-109.0667 0.4,-0.5333 21.7334,-0.9333 47.2,-0.9333 35.7334,0 46.4,0.4 46.8,1.6 z M 827.90286,1897.1282 c 16.66666,4.4 30.66666,15.6 37.86666,30.4 11.33333,23.0667 6.8,49.2 -11.73333,66.9333 -28.93333,27.6 -75.46667,19.4667 -93.06667,-16.1333 -4.26666,-8.6667 -4.93333,-11.4667 -5.46666,-21.6 -0.66667,-13.0667 1.6,-23.4667 7.2,-32.9333 3.86666,-6.6667 15.6,-17.8667 22,-21.2 13.2,-6.9334 29.86666,-9.0667 43.2,-5.4667 z m 938.53334,3.8667 c 18.1333,8.5333 29.7333,24.1333 33.0667,44 3.8666,23.4666 -9.6,48.8 -31.4667,59.6 -29.7333,14.6666 -64.6667,2.9333 -79.0667,-26.4 -4.9333,-9.8667 -5.0666,-10.5334 -5.0666,-24.8 0,-13.8667 0.2666,-15.3334 4.2666,-23.7334 4.8,-10.2666 14.2667,-21.0666 22.8,-26 10.8,-6.2666 19.7334,-8.5333 33.2,-8 10.6667,0.5334 13.4667,1.2 22.2667,5.3334 z"
       id="path2"
       sodipodi:nodetypes="cccccccscscccsccccsccccccsccccsccccccscccccccccccccccccccsscccccscscccssccscccccsscsccccccccssccsscccccccsccccccccccscccccsccsccccsccccccssccssccssscccccccccscsssscssccccccccccccccccscccsccscccccccccsccscscsccccccscccccsccscccccccccscccccccccccccscccc"
       style="stroke-width:0.133333;fill:#ffffff" />
  </g>
</svg>
