<?xml version="1.0" encoding="UTF-8" standalone="no"?>
<!-- Created with Inkscape (http://www.inkscape.org/) -->

<svg
   version="1.1"
   id="svg2"
   width="2400"
   height="2400"
   viewBox="0 0 2400 2400"
   sodipodi:docname="carrito1.svg"
   inkscape:version="1.1.1 (3bf5ae0d25, 2021-09-20)"
   xmlns:inkscape="http://www.inkscape.org/namespaces/inkscape"
   xmlns:sodipodi="http://sodipodi.sourceforge.net/DTD/sodipodi-0.dtd"
   xmlns="http://www.w3.org/2000/svg"
   xmlns:svg="http://www.w3.org/2000/svg">
  <defs
     id="defs6" />
  <sodipodi:namedview
     id="namedview4"
     pagecolor="#ffffff"
     bordercolor="#666666"
     borderopacity="1.0"
     inkscape:pageshadow="2"
     inkscape:pageopacity="0.0"
     inkscape:pagecheckerboard="0"
     showgrid="false"
     inkscape:zoom="0.16"
     inkscape:cx="890.625"
     inkscape:cy="1134.375"
     inkscape:window-width="1366"
     inkscape:window-height="705"
     inkscape:window-x="-8"
     inkscape:window-y="-8"
     inkscape:window-maximized="1"
     inkscape:current-layer="g8" />
  <g
     inkscape:groupmode="layer"
     inkscape:label="Image"
     id="g8">
    <path
       d="m 2351.0057,13.89355 c 23.6292,8.692633 38.5739,22.521835 46.8544,44.055856 6.6644,17.385265 7.0683,24.102299 2.0194,38.326621 -5.6547,16.002333 -9.6939,22.521803 -20.5996,32.794933 -16.3587,15.60723 -15.3487,15.40967 -207.6122,46.82168 -97.1415,16.00236 2.6255,-0.79024 0,0 -4.443,1.38292 -35.7465,78.03615 -284.1539,693.04012 -153.6895,380.10504 -279.5091,692.24944 -279.5091,693.63254 0,1.1853 42.0072,33.9802 93.3046,72.8997 121.9821,92.2603 146.2169,115.5724 170.8558,163.777 17.9739,35.1656 25.2443,65.3922 25.2443,102.731 -0.2017,36.7462 -4.6447,52.551 -24.4366,84.9509 -24.6387,40.4998 -60.3852,72.1092 -104.2099,91.8654 -10.3,4.5437 -17.1665,8.6925 -16.1564,9.6803 1.0094,0.9879 7.6742,3.5562 14.5408,5.7294 22.0132,7.1121 38.5737,17.5826 56.952,35.7582 18.7819,18.5705 31.5053,39.512 37.3619,62.4289 17.5704,66.7753 -18.1762,137.8968 -83.4081,165.1601 -11.7137,4.9389 -48.4698,13.6316 -57.558,13.6316 -8.2802,0 -39.5838,-6.5195 -51.903,-10.8657 -18.7821,-6.5195 -35.3425,-17.3853 -52.9129,-34.5731 -14.541,-14.4218 -18.984,-20.3486 -26.6583,-35.7583 -21.2056,-43.2656 -20.1959,-87.519 3.0294,-130.3895 8.0781,-14.6195 30.4953,-38.5243 44.2286,-47.2169 9.6938,-6.1243 11.9154,-8.6925 8.6841,-10.4705 -3.6352,-1.9758 -1247.69238,2.7657 -1249.71188,4.7414 -1.41373,1.3828 0,3.3584 4.03902,6.1243 10.7039,7.3097 34.13081,32.2022 40.99749,43.4632 26.05239,43.068 26.05239,99.1751 0.20198,142.243 -15.14688,25.0903 -40.39151,47.2169 -67.45385,58.6753 -11.91545,5.3341 -48.67175,14.0268 -58.16364,14.0268 -8.28029,0 -39.58374,-6.5195 -51.90309,-10.8657 -18.37806,-6.322 -35.34247,-17.5829 -52.71086,-34.3755 -14.54093,-14.0267 -18.98394,-20.151 -26.86028,-35.7583 -20.59963,-41.29 -20.59963,-82.7776 0,-124.4629 8.28016,-16.5949 11.71348,-21.1387 30.29361,-38.9191 15.34871,-14.6195 19.99378,-20.3488 17.7722,-21.1389 -1.81762,-0.5927 -30.2936,-1.1854 -63.41464,-1.1854 -55.33627,0 -61.39499,-0.3952 -71.088945,-3.9513 -15.550618,-5.7291 -30.495504,-19.1632 -38.371839,-35.1656 -5.856816,-11.6561 -6.664601,-15.0145 -6.664601,-29.0413 0.20191,-12.8414 1.009852,-17.9778 5.452867,-27.0657 6.866469,-14.2244 20.801546,-28.0534 35.544521,-34.7705 l 11.511567,-5.3341 191.85938,-1.383 c 105.42161,-0.9877 464.09793,-2.3708 796.72169,-3.1609 661.2082,-1.9756 613.9502,-0.9879 634.7518,-12.8414 11.1077,-6.5195 16.5605,-12.2487 21.4074,-23.1146 9.29,-20.5461 7.2706,-42.2776 -6.2605,-69.1458 -14.339,-28.4486 -10.9056,-25.6829 -285.3656,-233.5158 l -12.3197,-9.2853 -63.6164,-5.1367 c -34.7366,-2.5682 -202.5631,-15.6071 -372.4094,-28.6461 -728.86387,-55.9094 -848.62463,-65.1947 -856.29891,-67.3679 -18.78203,-4.9389 -37.96803,-21.3365 -45.64246,-38.7217 -4.44301,-10.0756 -5.25078,-16.5951 -31.909145,-230.7499 C 66.262701,1174.3602 56.164794,1093.9533 52.933527,1067.2826 49.500178,1040.6123 44.04734,997.14912 40.816087,970.47847 37.584663,943.80793 27.890706,867.35222 19.610549,800.57689 11.330265,733.80177 3.2520191,673.94105 2.0402709,667.81671 -0.18130089,657.5436 0.0206096,654.97531 4.0598038,642.92416 11.936125,619.01942 24.861349,604.00486 45.259074,595.11467 c 12.31935,-5.33412 18.580145,-5.72922 117.741096,-7.90238 48.87372,-1.18536 124.20375,-2.96341 167.62461,-3.95121 43.21873,-1.18536 153.68941,-3.75364 245.37813,-5.9268 91.68855,-2.17314 202.56319,-4.74143 246.38795,-5.92679 43.82472,-0.98779 117.5391,-2.76583 163.58542,-3.95118 46.04632,-1.18536 119.76072,-2.9634 163.58542,-3.95121 153.4877,-3.75364 245.984,-5.9268 326.1611,-7.9024 122.588,-2.9634 246.9937,-5.92679 320.7081,-7.70483 37.9681,-0.9878 67.05,-2.37072 68.2616,-3.55608 1.0098,-0.9878 43.4208,-104.50916 93.9103,-229.95968 50.4893,-125.45051 94.112,-231.737725 96.9396,-236.281601 5.8567,-9.877992 18.9838,-20.743782 31.3033,-26.077898 4.847,-2.173172 25.2446,-6.519474 45.2383,-9.878005 19.9939,-3.358503 -88.0534,15.014561 -17.9742,3.556077 69.8774,-11.45847 145.4094,-24.102286 167.6246,-28.053496 52.3069,-9.0877518 53.9226,-9.2853116 69.2713,-3.753637 z m -724.4209,642.26712 c -43.2189,1.18536 -53.5186,1.97561 -54.9324,4.14876 -3.0292,4.74143 -2.6252,245.567 0.4041,248.5304 1.8176,1.77804 19.7916,2.37072 68.6654,2.37072 64.0206,0 66.242,-0.19751 68.2617,-3.95125 4.443,-8.09986 100.9785,-249.32059 100.9785,-252.28399 0,-3.16096 -16.3586,-3.16096 -183.3773,1.18536 z m -248.8113,6.12437 c -53.9226,1.18536 -99.9689,2.56828 -102.5942,3.16095 l -4.4433,0.79023 0.4041,122.09206 0.6059,121.89441 124.0018,0.59268 c 97.9491,0.39518 124.4056,0 125.8192,-1.97554 0.8079,-1.38286 1.6157,-57.29245 1.6157,-124.26529 0,-94.63113 -0.6058,-122.09194 -2.6253,-124.06754 -1.8177,-1.77804 -7.8764,-2.17316 -23.629,-1.38293 -11.7137,0.59268 -65.2322,2.17317 -119.1549,3.16097 z m -331.0081,7.90239 c -39.3816,0.9878 -72.30078,2.56826 -73.3104,3.55608 -0.80787,0.79022 -1.41384,54.52647 -1.21166,119.12855 l 0.60569,117.35063 h 124.20387 124.2038 l 0.6058,-119.52369 c 0.2019,-65.78743 0,-120.70913 -0.6058,-122.28961 -0.808,-2.17317 -9.6939,-2.37072 -52.1052,-1.38292 -27.8701,0.79024 -83.0043,2.17315 -122.3861,3.16096 z m -261.73661,6.12434 c -57.75991,1.18537 -107.03742,2.96341 -109.66289,3.95121 l -4.44321,1.77804 0.404,113.99211 0.60596,114.18956 h 125.21358 125.21333 l 0.60598,-115.57259 c 0.20204,-63.61423 0,-116.75784 -0.60598,-118.14075 -1.21166,-2.9634 -5.65466,-2.9634 -137.33077,-0.19758 z m -307.98508,7.90241 c -54.93223,1.18536 -101.18049,2.37072 -102.59422,2.76584 -2.01951,0.79024 -2.42349,24.1023 -2.01951,112.0165 l 0.60578,111.22617 122.99208,0.59268 c 89.06325,0.19767 123.79983,-0.1975 125.61735,-1.77804 2.42349,-1.77803 2.82746,-21.73151 2.82746,-111.81885 0,-73.49228 -0.60576,-110.83114 -2.22148,-113.39942 -1.81773,-3.75364 -3.63523,-3.9512 -23.62911,-2.9634 -11.91544,0.79024 -66.6459,2.17316 -121.57835,3.35852 z m -301.32024,6.91459 c -32.91899,0.79023 -60.99101,1.97559 -62.20274,2.76584 -1.81763,0.98779 -1.00986,12.05115 2.82729,42.6729 2.82744,22.71947 8.88618,70.52887 13.32917,106.48485 4.64508,35.75829 8.88619,65.78747 9.89602,66.77532 0.80779,0.79019 42.20899,1.18536 92.29446,0.98769 l 90.67874,-0.59268 0.60587,-108.65794 c 0.20204,-59.86065 0,-109.8433 -0.60587,-111.42378 -1.0097,-2.37071 -8.28016,-2.56827 -44.02661,-1.58047 -23.4271,0.79023 -69.87733,1.97559 -102.79633,2.56827 z M 1572.0565,959.02008 c -3.4333,3.35839 -3.4333,221.06942 0,224.42782 3.2311,3.1611 22.8211,3.1611 25.2445,-0.1975 4.4432,-5.3341 89.8711,-220.67419 88.8613,-223.63765 -1.2118,-2.5684 -8.6842,-2.96333 -56.548,-2.96333 -40.1896,0 -55.7402,0.59266 -57.5578,2.37066 z m -300.9164,111.02842 c -0.4041,88.7045 0,112.8067 2.0193,114.1896 1.414,0.7903 57.1542,1.5804 124.002,1.5804 91.4867,0 121.7802,-0.5926 123.5979,-2.3706 3.4333,-3.3584 3.4333,-221.06943 0,-224.42782 -1.8177,-1.778 -31.5054,-2.37066 -125.8195,-1.97573 l -123.1938,0.59266 z M 971.83926,960.40301 c -3.2312,6.12426 -2.8274,217.71079 0.40408,222.05719 2.42347,3.1609 11.7134,3.3583 125.81926,2.9634 l 123.1941,-0.5926 0.6058,-111.6216 c 0.2019,-61.4408 0,-112.80639 -0.6058,-114.18932 -0.606,-1.778 -27.4663,-2.37066 -124.0019,-2.37066 -119.76073,0 -123.39601,0.19746 -125.41554,3.75359 z m -298.49307,-1.38293 c -3.43305,3.35839 -3.43305,221.06942 0,224.42782 3.43344,3.3585 244.16644,3.3585 247.59996,0 1.81749,-1.778 2.42346,-29.634 2.42346,-113.2018 0,-61.0459 -0.60597,-111.62122 -1.4137,-112.21389 -0.60583,-0.79013 -56.34602,-1.38279 -123.79993,-1.38279 -92.49649,0 -122.99208,0.59266 -124.80979,2.37066 z M 373.03576,1071.2338 v 113.5972 l 123.19406,0.5926 c 114.1057,0.3949 123.39587,0.1975 125.61737,-2.9634 3.43323,-4.3464 3.83721,-215.93293 0.60576,-222.05719 -2.22129,-3.75359 -5.25076,-3.75359 -125.81914,-3.35866 l -123.59805,0.59266 z M 146.43971,959.02008 c -1.21174,1.778 0,17.97785 3.63523,47.01912 3.02936,24.4975 9.29,74.2824 13.93505,110.6335 5.2508,42.0803 9.08809,66.5777 10.70366,67.5654 1.21173,0.7903 35.14055,1.383 75.12812,0.9878 l 72.70464,-0.3949 0.60587,-111.6216 c 0.20204,-61.4408 0,-112.80639 -0.60587,-114.18932 -0.60588,-1.778 -19.99378,-2.37066 -87.44748,-2.37066 -67.04987,0 -87.24556,0.59266 -88.65922,2.37066 z M 1571.2484,1233.6281 c -1.4135,3.5561 0.404,7.7048 2.6257,6.322 2.4235,-1.3831 2.4235,-8.6927 0,-8.6927 -1.0099,0 -2.2217,1.1854 -2.6257,2.3707 z m -300.1083,114.9799 c -0.2019,73.2946 0.2019,117.1528 1.6157,118.5359 1.4137,1.3828 142.1777,14.0267 197.9179,17.5827 4.847,0.3952 6.261,-2.5682 28.2741,-55.9093 l 23.2252,-56.3046 0.6056,-67.9605 c 0.2022,-37.5365 0,-69.3436 -0.4037,-70.7266 -1.0097,-2.1731 -23.6289,-2.5682 -125.8193,-2.1731 l -124.8096,0.5928 z M 971.03153,1235.6037 c -0.60597,2.5684 -1.21166,49.5876 -1.21166,104.5093 0,76.8507 0.60569,100.5579 2.42347,102.9285 2.22128,2.5683 23.02316,4.7415 121.78006,12.2488 65.4342,4.9389 121.1746,9.0877 123.598,9.0877 h 4.6449 v -115.1773 c 0,-63.4168 -0.6058,-115.9678 -1.4135,-116.5605 -0.606,-0.7901 -56.952,-1.3828 -125.0116,-1.3828 H 972.24334 Z m -299.09888,91.4703 v 94.8286 l 10.09793,1.3829 c 22.21516,2.9635 234.87636,17.978 237.90551,16.7927 3.23149,-1.1855 3.43352,-10.0756 3.43352,-103.719 0,-56.3046 -0.60597,-103.1263 -1.4137,-103.719 -0.60583,-0.7901 -57.35607,-1.1853 -125.61764,-0.9877 l -124.40562,0.5928 z m -299.50267,-13.039 c -0.20199,51.5631 0.2018,82.58 1.61553,83.9628 1.00975,0.9879 56.75016,6.1244 123.59785,11.261 112.28837,8.6926 121.98233,9.2854 124.20383,6.322 2.0197,-2.5684 2.62546,-23.9048 2.62546,-90.68 0,-48.0071 -0.60576,-88.9019 -1.21173,-90.4824 -1.21175,-2.9635 -13.53117,-3.161 -125.81935,-2.7659 l -124.40581,0.5928 z m -192.66732,-80.4069 c -0.60587,1.3829 3.23127,35.7584 8.28016,76.4557 7.06855,56.8973 9.89602,74.2824 12.31951,75.4678 4.03903,2.1732 118.34694,10.4708 120.97233,8.6926 2.42349,-1.3829 3.23141,-159.4308 0.80793,-161.604 -0.60588,-0.7901 -32.91916,-1.3828 -71.4929,-1.3828 -54.12466,0 -70.28115,0.5927 -70.88703,2.3707 z m 1518.11304,911.1462 c -25.2445,6.5194 -46.4499,23.1143 -57.3557,45.0435 -17.1664,34.178 -10.2999,72.8997 17.7722,99.175 43.8248,40.8949 114.3078,28.8438 140.9663,-23.9046 6.4625,-12.8415 7.4724,-16.9903 8.2801,-32.0047 1.0098,-19.3609 -2.4234,-34.7706 -10.9056,-48.7973 -5.8567,-9.878 -23.6292,-26.473 -33.323,-31.4119 -19.9938,-10.2734 -45.2384,-13.4342 -65.4343,-8.1 z m -1421.57748,5.7292 c -27.46615,12.6438 -45.03643,35.7583 -50.08547,65.1947 -5.85665,34.7705 14.54093,72.307 47.66197,88.3093 45.03646,21.7315 97.94929,4.3462 119.76067,-39.1168 7.47246,-14.6196 7.67445,-15.6073 7.67445,-36.7462 0,-20.5463 -0.40397,-22.7195 -6.4627,-35.1657 -7.27046,-15.212 -21.60939,-31.2144 -34.5346,-38.5243 -16.35856,-9.2852 -29.8898,-12.6437 -50.28739,-11.8536 -16.15664,0.7904 -20.39773,1.7782 -33.72693,7.9026 z"
       id="path2"
       sodipodi:nodetypes="cccccccscscccsccccsccccccsccccsccccccscccccccccccccccccccsscccccscscccssccscccccsscsccccccccssccsscccccccsccccccccccscccccsccsccccsccccccssccssccssscccccccccscsssscssccccccccccccccccscccsccscccccccccsccscscsccccccscccccsccscccccccccscccccccccccccscccc"
       style="fill:#ffffff;fill-opacity:1;stroke-width:0.199746" />
  </g>
</svg>
