<?xml version="1.0" encoding="UTF-8" standalone="no"?>
<!-- Created with Inkscape (http://www.inkscape.org/) -->

<svg
   version="1.1"
   id="svg2"
   width="2400"
   height="2400"
   viewBox="0 0 2400 2400"
   sodipodi:docname="carrito1.svg"
   inkscape:version="1.1.1 (3bf5ae0d25, 2021-09-20)"
   xmlns:inkscape="http://www.inkscape.org/namespaces/inkscape"
   xmlns:sodipodi="http://sodipodi.sourceforge.net/DTD/sodipodi-0.dtd"
   xmlns="http://www.w3.org/2000/svg"
   xmlns:svg="http://www.w3.org/2000/svg">
  <defs
     id="defs6" />
  <sodipodi:namedview
     id="namedview4"
     pagecolor="#ffffff"
     bordercolor="#666666"
     borderopacity="1.0"
     inkscape:pageshadow="2"
     inkscape:pageopacity="0.0"
     inkscape:pagecheckerboard="0"
     showgrid="false"
     inkscape:zoom="0.15320647"
     inkscape:cx="969.28021"
     inkscape:cy="1302.1643"
     inkscape:window-width="1366"
     inkscape:window-height="705"
     inkscape:window-x="-8"
     inkscape:window-y="-8"
     inkscape:window-maximized="1"
     inkscape:current-layer="g8" />
  <g
     inkscape:groupmode="layer"
     inkscape:label="Image"
     id="g8">
    <path
       d="m 2054.1521,325.3731 c 16.5606,6.29948 27.0347,16.32139 32.8381,31.92692 4.6708,12.59896 4.9539,17.46674 1.4153,27.77499 -3.9631,11.59676 -6.794,16.32137 -14.4373,23.76622 -11.4651,11.31043 -10.7572,11.16726 -145.5061,33.93129 -68.0821,11.59678 1.8401,-0.57268 0,0 -3.1139,1.00219 -25.0531,56.55216 -199.1507,502.24053 -107.7141,275.45905 -195.8954,501.66755 -195.8954,502.66985 0,0.859 29.441,24.6252 65.393,52.8298 85.4918,66.8603 102.4769,83.7544 119.7452,118.6879 12.5971,25.4842 17.6926,47.3892 17.6926,74.4483 -0.1414,26.6297 -3.2553,38.0833 -17.1265,61.5632 -17.2682,29.3499 -42.3213,52.257 -73.0361,66.5741 -7.2188,3.2928 -12.0312,6.2994 -11.3233,7.0153 0.7075,0.7159 5.3785,2.5771 10.191,4.152 15.4281,5.1541 27.0346,12.742 39.9151,25.9137 13.1634,13.4579 22.0807,28.634 26.1853,45.2417 12.3143,48.3915 -12.7389,99.9327 -58.457,119.6902 -8.2096,3.5792 -33.9703,9.8787 -40.3398,9.8787 -5.8032,0 -27.7425,-4.7246 -36.3765,-7.8743 -13.1635,-4.7246 -24.77,-12.599 -37.0843,-25.0548 -10.1911,-10.4514 -13.305,-14.7465 -18.6836,-25.9138 -14.862,-31.3542 -14.1544,-63.4243 2.1232,-94.4922 5.6616,-10.5946 21.3728,-27.9182 30.9978,-34.2177 6.794,-4.4382 8.351,-6.2994 6.0863,-7.5879 -2.5477,-1.4318 -874.45158,2.0043 -875.86696,3.4361 -0.99082,1.0021 0,2.4338 2.83077,4.4382 7.50188,5.2973 23.92075,23.3367 28.7333,31.4974 18.25895,31.2111 18.25895,71.8714 0.14156,103.0824 -10.61577,18.1827 -28.3086,34.2177 -47.27538,42.5215 -8.351,3.8656 -34.11184,10.1651 -40.76428,10.1651 -5.80329,0 -27.74247,-4.7246 -36.37655,-7.8743 -12.88036,-4.5815 -24.76995,-12.7422 -36.94268,-24.9116 -10.19108,-10.1651 -13.30499,-14.6033 -18.82516,-25.9138 -14.43736,-29.9225 -14.43736,-59.9882 0,-90.1972 5.80319,-12.0262 8.20945,-15.3191 21.23143,-28.2044 10.75722,-10.5946 14.01274,-14.7466 12.45574,-15.3192 -1.27389,-0.4295 -21.23143,-0.859 -44.44448,-0.859 -38.78271,0 -43.02899,-0.2864 -49.82305,-2.8635 -10.89873,-4.1518 -21.37293,-13.8874 -26.8931,-25.4842 -4.10478,-8.4471 -4.67092,-10.8809 -4.67092,-21.046 0.14151,-9.3061 0.70776,-13.0284 3.82167,-19.6143 4.8124,-10.3083 14.57887,-20.3301 24.91156,-25.1979 l 8.06794,-3.8656 134.46563,-1.0022 c 73.88528,-0.7158 325.26542,-1.7181 558.38646,-2.2907 463.4112,-1.4317 430.2902,-0.7159 444.8691,-9.3061 7.7849,-4.7246 11.6065,-8.8765 15.0035,-16.7509 6.5109,-14.8896 5.0956,-30.6383 -4.3877,-50.1094 -10.0496,-20.6165 -7.6433,-18.6122 -200,-169.227 l -8.6343,-6.729 -44.5859,-3.7225 c -24.3453,-1.8612 -141.9674,-11.3104 -261.005,-20.7596 -510.82801,-40.5171 -594.76295,-47.2461 -600.14151,-48.821 -13.16348,-3.5792 -26.61009,-15.4624 -31.98875,-28.0613 -3.11391,-7.3017 -3.68004,-12.0263 -22.36369,-167.2226 -6.36943,-51.9707 -13.4466,-110.2409 -15.71125,-129.5689 -2.40628,-19.3278 -6.22793,-50.8252 -8.49257,-70.1532 -2.26476,-19.32792 -9.05882,-74.73475 -14.86201,-123.12629 -5.80328,-48.39139 -11.46496,-91.77196 -12.31422,-96.21022 -1.557,-7.44484 -1.41549,-9.30606 1.4154,-18.03943 5.52016,-17.32357 14.57887,-28.2045 28.87472,-34.64715 8.63408,-3.86559 13.02199,-4.15192 82.51945,-5.72679 34.2534,-0.85902 87.04884,-2.14756 117.48057,-2.86341 30.29007,-0.85902 107.71401,-2.72023 171.97452,-4.2951 64.26039,-1.57486 141.96745,-3.43608 172.68226,-4.2951 30.71478,-0.71584 82.37788,-2.00437 114.64968,-2.86339 32.2718,-0.85902 83.9349,-2.14755 114.6497,-2.86341 107.5726,-2.72023 172.3991,-4.2951 228.5917,-5.7268 85.9164,-2.14755 173.1068,-4.2951 224.7699,-5.58363 26.6101,-0.71585 46.9923,-1.71804 47.8415,-2.57706 0.7077,-0.71585 30.4317,-75.73694 65.8175,-166.64991 35.3857,-90.91296 65.9589,-167.93844 67.9406,-171.23135 4.1047,-7.1585 13.3049,-15.03285 21.9391,-18.89844 3.397,-1.57488 17.6928,-4.72461 31.7055,-7.15851 14.0128,-2.43388 -61.7127,10.88093 -12.5973,2.57706 48.9739,-8.30386 101.9109,-17.46673 117.4805,-20.33014 36.6596,-6.58582 37.792,-6.72899 48.5492,-2.72023 z M 1546.438,790.81885 c -30.2902,0.85902 -37.5088,1.43171 -38.4997,3.00657 -2.123,3.43608 -1.8399,177.96041 0.2832,180.10796 1.2739,1.28853 13.8711,1.71804 48.1245,1.71804 44.8692,0 46.4261,-0.14313 47.8416,-2.86344 3.1139,-5.8699 70.7713,-180.6806 70.7713,-182.82815 0,-2.29072 -11.465,-2.29072 -128.5209,0.85902 z m -174.3807,4.43828 c -37.7919,0.85902 -70.0637,1.86121 -71.9037,2.29072 l -3.1141,0.57267 0.2832,88.47912 0.4247,88.33589 86.9073,0.42951 c 68.6481,0.28638 87.1903,0 88.181,-1.43166 0.5662,-1.00215 1.1324,-41.51937 1.1324,-90.05404 0,-68.57841 -0.4246,-88.47904 -1.84,-89.91074 -1.2739,-1.28853 -5.5202,-1.57487 -16.5605,-1.0022 -8.2096,0.42951 -45.7183,1.57488 -83.5103,2.29073 z m -231.9887,5.7268 c -27.6008,0.71585 -50.6724,1.8612 -51.38,2.57706 -0.5662,0.57267 -0.9909,39.51489 -0.8492,86.33149 l 0.4245,85.04305 h 87.0489 87.0489 l 0.4246,-86.61785 c 0.1415,-47.67561 0,-87.47692 -0.4246,-88.62228 -0.5663,-1.57488 -6.794,-1.71804 -36.5182,-1.00219 -19.5329,0.57268 -58.174,1.57486 -85.7749,2.29072 z m -183.43948,4.43826 c -40.48133,0.85903 -75.01772,2.14756 -76.8578,2.86341 l -3.11404,1.28853 0.28314,82.60915 0.42469,82.75225 h 87.75658 87.75641 l 0.4247,-83.75452 c 0.1416,-46.10071 0,-84.61345 -0.4247,-85.61564 -0.8492,-2.14755 -3.9631,-2.14755 -96.24898,-0.14318 z M 740.7762,811.149 c -38.49954,0.85902 -70.91287,1.71804 -71.90369,2.00438 -1.41538,0.57268 -1.69851,17.46674 -1.41538,81.17745 l 0.42456,80.6047 86.19963,0.42951 c 62.42044,0.14325 86.76575,-0.14313 88.03957,-1.28853 1.69851,-1.28853 1.98164,-15.74865 1.98164,-81.03421 0,-53.25926 -0.42455,-80.31843 -1.55694,-82.17964 -1.27396,-2.72023 -2.54777,-2.8634 -16.56058,-2.14755 -8.351,0.57268 -46.70912,1.57487 -85.20881,2.43389 z m -211.18184,5.01095 c -23.07144,0.57267 -42.74586,1.43169 -43.59511,2.00438 -1.27389,0.71584 -0.70776,8.73337 1.98152,30.9247 1.98163,16.46462 6.22793,51.1117 9.34182,77.16871 3.25553,25.91374 6.22793,47.67564 6.93568,48.39153 0.56614,0.57264 29.58238,0.85902 64.68504,0.71577 l 63.55266,-0.42951 0.42463,-78.74353 c 0.1416,-43.38052 0,-79.60254 -0.42463,-80.7479 -0.70765,-1.71804 -5.80319,-1.86121 -30.85627,-1.14536 -16.41901,0.57268 -48.97389,1.4317 -72.04534,1.86121 z m 978.62714,194.13865 c -2.4062,2.4338 -2.4062,160.2072 0,162.641 2.2646,2.2908 15.9943,2.2908 17.6928,-0.1431 3.114,-3.8656 62.9866,-159.9208 62.2789,-162.0684 -0.8493,-1.8613 -6.0864,-2.1475 -39.632,-2.1475 -28.1671,0 -39.0658,0.4295 -40.3397,1.718 z m -210.8988,80.4614 c -0.2832,64.2834 0,81.7501 1.4153,82.7523 0.991,0.5727 40.0568,1.1453 86.9074,1.1453 64.1189,0 85.3503,-0.4295 86.6242,-1.718 2.4063,-2.4338 2.4063,-160.2072 0,-162.641 -1.2739,-1.2885 -22.0807,-1.718 -88.1812,-1.4318 l -86.341,0.4295 z m -209.7665,-79.4592 c -2.2646,4.4382 -1.9816,157.7732 0.2832,160.923 1.6985,2.2907 8.2094,2.4338 88.1811,2.1476 l 86.3412,-0.4295 0.4246,-80.8912 c 0.1415,-44.5257 0,-81.7499 -0.4246,-82.7521 -0.4247,-1.2885 -19.2499,-1.718 -86.9074,-1.718 -83.9349,0 -86.4827,0.1431 -87.8981,2.7202 z m -209.2004,-1.0022 c -2.40607,2.4338 -2.40607,160.2072 0,162.641 2.40634,2.4339 171.1253,2.4339 173.5317,0 1.2738,-1.2885 1.6985,-21.4755 1.6985,-82.0364 0,-44.2395 -0.4247,-80.891 -0.9908,-81.3205 -0.4246,-0.5726 -39.4904,-1.0021 -86.76582,-1.0021 -64.82664,0 -86.19963,0.4295 -87.47358,1.718 z m -210.47411,81.3204 v 82.3229 l 86.34119,0.4295 c 79.97157,0.2862 86.48263,0.1431 88.03958,-2.1476 2.4062,-3.1498 2.68933,-156.4848 0.42455,-160.923 -1.5568,-2.7202 -3.68002,-2.7202 -88.18099,-2.434 l -86.62433,0.4295 z m -158.811,-81.3204 c -0.84926,1.2885 0,13.0284 2.54777,34.0744 2.12314,17.7531 6.51094,53.8318 9.76645,80.1752 3.68005,30.4952 6.36943,48.2483 7.50171,48.9641 0.84925,0.5727 24.62844,1.0022 52.65393,0.7158 l 50.95542,-0.2862 0.42463,-80.8912 c 0.1416,-44.5257 0,-81.7499 -0.42463,-82.7521 -0.42463,-1.2885 -14.01274,-1.718 -61.28801,-1.718 -46.99225,0 -61.1465,0.4295 -62.13727,1.718 z m 998.58451,199.0062 c -0.9907,2.5771 0.2831,5.5836 1.8402,4.5815 1.6985,-1.0023 1.6985,-6.2995 0,-6.2995 -0.7078,0 -1.5571,0.859 -1.8402,1.718 z m -210.3325,83.325 c -0.1415,53.116 0.1415,84.8997 1.1324,85.902 0.9908,1.0021 99.646,10.165 138.7118,12.742 3.397,0.2864 4.388,-1.8611 19.816,-40.517 l 16.2775,-40.8035 0.4245,-49.2504 c 0.1417,-27.2024 0,-50.2527 -0.283,-51.255 -0.7076,-1.5748 -16.5604,-1.8611 -88.1811,-1.5748 l -87.4734,0.4296 z m -210.3326,-81.8933 c -0.4247,1.8613 -0.8492,35.9357 -0.8492,75.737 0,55.6931 0.4245,72.8735 1.6985,74.5915 1.5568,1.8612 16.1359,3.4361 85.3502,8.8766 45.8599,3.5792 84.9258,6.5858 86.6243,6.5858 h 3.2554 v -83.4681 c 0,-45.9576 -0.4246,-84.0409 -0.9907,-84.4704 -0.4247,-0.5726 -39.9151,-1.0021 -87.615,-1.0021 h -86.6242 z m -209.62499,66.2878 v 68.7215 l 7.07719,1.0022 c 15.56961,2.1476 164.6143,13.0285 166.7373,12.1695 2.2648,-0.8591 2.4064,-7.3017 2.4064,-75.1643 0,-40.8035 -0.4247,-74.7348 -0.9908,-75.1643 -0.4246,-0.5726 -40.1983,-0.859 -88.03977,-0.7158 l -87.19032,0.4296 z m -209.90798,-9.4493 c -0.14157,37.3674 0.14143,59.8451 1.13225,60.8472 0.70769,0.7159 39.77364,4.4383 86.62419,8.1607 78.69788,6.2995 85.49194,6.7291 87.04889,4.5815 1.41552,-1.8613 1.84007,-17.3236 1.84007,-65.715 0,-34.7904 -0.42455,-64.4265 -0.84925,-65.5719 -0.84926,-2.1476 -9.48339,-2.2907 -88.18114,-2.0044 l -87.19045,0.4296 z m -135.03188,-58.2702 c -0.42463,1.0022 2.26465,25.9138 5.80319,55.4068 4.95403,41.233 6.93568,53.8319 8.63419,54.6909 2.83078,1.5749 82.94406,7.5881 84.78408,6.2995 1.69852,-1.0022 2.26475,-115.5382 0.56624,-117.1131 -0.42463,-0.5726 -23.07156,-1.0021 -50.10616,-1.0021 -37.93355,0 -49.25691,0.4295 -49.68154,1.718 z M 1596.4026,1869.605 c -17.6928,4.7246 -32.5547,16.7508 -40.1981,32.6427 -12.0311,24.7685 -7.2187,52.8298 12.4558,71.8713 30.7148,29.6362 80.1132,20.9029 98.7969,-17.3235 4.5293,-9.3061 5.2371,-12.3127 5.8032,-23.1935 0.7077,-14.0307 -1.6985,-25.198 -7.6433,-35.363 -4.1047,-7.1585 -16.5606,-19.1848 -23.3546,-22.764 -14.0127,-7.445 -31.7055,-9.7356 -45.8599,-5.87 z m -996.31991,4.1519 c -19.24979,9.1629 -31.56401,25.9138 -35.10266,47.2461 -4.10466,25.1979 10.19109,52.4003 33.40414,63.997 31.56403,15.7487 68.64826,3.1497 83.93488,-28.3476 5.23711,-10.5947 5.37868,-11.3105 5.37868,-26.6297 0,-14.8897 -0.28313,-16.4646 -4.52942,-25.4843 -5.09554,-11.024 -15.14505,-22.6208 -24.20375,-27.9182 -11.46498,-6.7289 -20.94842,-9.1628 -35.24418,-8.5902 -11.32346,0.5728 -14.29585,1.2886 -23.63769,5.7269 z"
       id="path2"
       sodipodi:nodetypes="cccccccscscccsccccsccccccsccccsccccccscccccccccccccccccccsscccccscscccssccscccccsscsccccccccssccsscccccccsccccccccccscccccsccsccccsccccccssccssccssscccccccccscsssscssccccccccccccccccscccsccscccccccccsccscscsccccccscccccsccscccccccccscccccccccccccscccc"
       style="fill:#1a1a1a;fill-opacity:1;stroke-width:0.142354" />
  </g>
</svg>
