<?xml version="1.0" encoding="UTF-8" standalone="no"?>
<!-- Created with Inkscape (http://www.inkscape.org/) -->

<svg
   version="1.1"
   id="svg2"
   width="85"
   height="152"
   viewBox="0 0 85 152"
   sodipodi:docname="icon-directions.svg"
   inkscape:version="1.1.1 (3bf5ae0d25, 2021-09-20)"
   xmlns:inkscape="http://www.inkscape.org/namespaces/inkscape"
   xmlns:sodipodi="http://sodipodi.sourceforge.net/DTD/sodipodi-0.dtd"
   xmlns="http://www.w3.org/2000/svg"
   xmlns:svg="http://www.w3.org/2000/svg">
  <defs
     id="defs6" />
  <sodipodi:namedview
     id="namedview4"
     pagecolor="#ffffff"
     bordercolor="#666666"
     borderopacity="1.0"
     inkscape:pageshadow="2"
     inkscape:pageopacity="0.0"
     inkscape:pagecheckerboard="0"
     showgrid="false"
     inkscape:zoom="2.4190495"
     inkscape:cx="39.685008"
     inkscape:cy="79.990095"
     inkscape:window-width="1366"
     inkscape:window-height="705"
     inkscape:window-x="-8"
     inkscape:window-y="-8"
     inkscape:window-maximized="1"
     inkscape:current-layer="g8" />
  <g
     inkscape:groupmode="layer"
     inkscape:label="Image"
     id="g8">
    <path
       style="fill:#000000;stroke-width:0.999999"
       d="m 6.5287352,151.49093 c -3.734967,-1.50909 -6.38811979,-5.92044 -6.38811979,-10.62142 0,-5.04113 -1.89369451,-2.70568 31.68168259,-39.07222 C 44.09741,88.50178 54.140635,77.106164 54.140635,76.473698 54.140635,75.841232 43.903142,64.209471 31.390638,50.625319 -3.0579232,13.226403 0.14061541,17.172645 0.14061541,12.070056 c 0,-8.1339964 7.67383949,-13.6336626 14.86641359,-10.6544122 2.950526,1.2221481 66.921336,65.9095942 68.966967,69.7396162 1.495181,2.799383 1.494992,7.832655 -3.78e-4,10.631471 -1.776037,3.324057 -64.946381,67.634609 -68.033311,69.261279 -2.999093,1.58041 -6.221008,1.73204 -9.4115718,0.44292 z"
       id="path836"
       inkscape:export-filename="C:\Users\COMSURPE AZANGARO\Desktop\path836.png"
       inkscape:export-xdpi="96"
       inkscape:export-ydpi="96" />
  </g>
</svg>
